# xmcd
#
# Track frame offsets:
#	150
#	29539
#	54279
#	71909
#	89613
#	124225
#	144740
#	165653
#	180826
#
# Disc length: 2830 seconds
#
# Revision: 0
# Processed by: cddbd v1.5PL3 Copyright (c) Steve Scherf et al.
# Submitted via: dBpowerAMP V4.0
#
DISCID=7d0b0c09
DTITLE=Marc Broussard - Select Encores
DYEAR=2003
DGENRE=Blues
TTITLE0=Just Like That
TTITLE1=Don't Change Horses
TTITLE2=House at Pooh Corner
TTITLE3=A Song for You
TTITLE4=I've Been Lovin' You
TTITLE5=You Lie, You Cheat
TTITLE6=Steamroller
TTITLE7=In the Groove
TTITLE8=What's Going On
EXTD=
EXTT0=
EXTT1=
EXTT2=
EXTT3=
EXTT4=
EXTT5=
EXTT6=
EXTT7=
EXTT8=
PLAYORDER=
